# xmcd
#
# Track frame offsets: 
#        150
#        13340
#        26050
#        41194
#        54949
#        69614
#        81101
#        93204
#        107616
#        117864
#        131683
#        148441
#        162060
#        176458
#        191297
#        205181
#        219407
#        230912
#        242532
#        254546
#        268515
#        281024
#        295761
#        308980
#
# Disc length: 4306 seconds
#
# Revision: 0
# Processed by: cddbd v1.5.2PL0 Copyright (c) Steve Scherf et al.
# Submitted via: ExactAudioCopy v1.0b3
#
DISCID=6310d018
DTITLE=Muddy Waters - Blues Master Works - Muddy Waters
DYEAR=2013
DGENRE=Blues
TTITLE0=Mannish Boy
TTITLE1=I'm Your Hoochie Coochie Man
TTITLE2=Honey Bee
TTITLE3=Mad Love
TTITLE4=Baby Please Don't Go
TTITLE5=Hard Days
TTITLE6=Howling Wolf
TTITLE7=Please Have Mercy
TTITLE8=Mean Red Spider
TTITLE9=Who's Gonna Be Your Sweet Man
TTITLE10=Sad Sad Day
TTITLE11=Sad Letter Blues
TTITLE12=Too Young To Know
TTITLE13=Still A Fool
TTITLE14=Screamin' And Cryin'
TTITLE15=All Night Long
TTITLE16=Gypsy Woman
TTITLE17=Mean Disposition
TTITLE18=Long Distance Call
TTITLE19=Where's My Women Been?
TTITLE20=Train Fare Home Blues
TTITLE21=Streamline Women
TTITLE22=Walking Blues
TTITLE23=Early Morning Blues
EXTD=
EXTT0=
EXTT1=
EXTT2=
EXTT3=
EXTT4=
EXTT5=
EXTT6=
EXTT7=
EXTT8=
EXTT9=
EXTT10=
EXTT11=
EXTT12=
EXTT13=
EXTT14=
EXTT15=
EXTT16=
EXTT17=
EXTT18=
EXTT19=
EXTT20=
EXTT21=
EXTT22=
EXTT23=
PLAYORDER=
